<svg xmlns="http://www.w3.org/2000/svg" width="128" height="128" viewBox="2.5 2.5 128 128">
  <defs>
    <style>
      .cls-1 {
        fill: #7e7e7e;
      }

      .cls-2 {
        fill: #08023c;
        fill-rule: evenodd;
      }
    </style>
  </defs>
  <circle class="cls-1" cx="67" cy="67" r="63"/>
  <path id="_20" data-name="20" class="cls-2" d="M57.628,102.333V89.516H26.239L37.063,79.205q4.272-4.044,7.6-7.69a50.692,50.692,0,0,0,5.611-7.292,32.129,32.129,0,0,0,3.475-7.491,27.764,27.764,0,0,0,1.2-8.289,24.079,24.079,0,0,0-1.738-9.456,18.345,18.345,0,0,0-4.9-6.836,21.157,21.157,0,0,0-7.6-4.13,33,33,0,0,0-9.912-1.4,31.874,31.874,0,0,0-13.131,2.706A39.627,39.627,0,0,0,6.757,36.537l7.349,9.456a30.258,30.258,0,0,1,7.121-5.1,17.743,17.743,0,0,1,8.146-1.908,11.834,11.834,0,0,1,4.557.826,9.066,9.066,0,0,1,5.3,5.526,11.821,11.821,0,0,1,.684,4.016,23.592,23.592,0,0,1-.513,4.956,18.337,18.337,0,0,1-2.136,5.212,46.931,46.931,0,0,1-4.614,6.409q-2.991,3.589-7.947,8.545L7.1,92.079v10.254H57.628Zm65.283-54.915a33.6,33.6,0,0,0-5.839-11.849,22.533,22.533,0,0,0-8.915-6.779,31.319,31.319,0,0,0-23.983.456,25.152,25.152,0,0,0-9.4,7.605A35.658,35.658,0,0,0,68.935,49.07a61,61,0,0,0-2.022,16.406,62.413,62.413,0,0,0,2.108,17.318,33.572,33.572,0,0,0,5.868,11.878,22.627,22.627,0,0,0,8.944,6.808,31.314,31.314,0,0,0,23.983-.456,25.517,25.517,0,0,0,9.371-7.6A35,35,0,0,0,123.025,81.2a61.835,61.835,0,0,0,1.994-16.406A62.714,62.714,0,0,0,122.911,47.418ZM82.095,53a28.949,28.949,0,0,1,3.19-8.431,14.013,14.013,0,0,1,4.757-4.985,11.4,11.4,0,0,1,5.924-1.623,11.75,11.75,0,0,1,7.719,2.706,18.578,18.578,0,0,1,5.269,8.346L81.041,69.179a18.144,18.144,0,0,1-.114-2.022V65.021A54.117,54.117,0,0,1,82.095,53ZM109.866,77.24a28.086,28.086,0,0,1-3.162,8.431,14.248,14.248,0,0,1-4.785,4.985,11.4,11.4,0,0,1-5.953,1.652,11.849,11.849,0,0,1-7.69-2.677,17.141,17.141,0,0,1-5.127-8.2l27.743-20.052q0,0.912.057,1.908t0.057,1.965A55.56,55.56,0,0,1,109.866,77.24Z"/>
</svg>
