<svg version="1.0" xmlns="http://www.w3.org/2000/svg" width="682.667" height="682.667" viewBox="0 0 512 512"><path d="M252.9 34.4c-.2.2-3.5.6-7.4.9-9.3.8-21.1 3.1-31.5 6.4-4.7 1.4-9 2.7-9.6 2.9-.6.1-5 2.1-9.8 4.4-37.5 17.8-64.1 46.7-74.6 81-3.8 12.2-4.9 19.5-4.5 29.8.3 7.3.8 9 4 15 13.8 25 45.8 30.5 64.4 11 5.3-5.6 8.3-11.2 12.7-23.9 10.1-29.3 23.1-48.4 37.7-55.2 9.6-4.6 17.1-6 31.7-6 9.7 0 15.3.5 20 1.7 18.8 5.1 33.8 18.9 39.5 36.4 1.9 6 2.3 21.2.6 25.4-.6 1.6-.8 2.8-.6 2.8 1 0-4.8 10.6-9 16.5-4.8 6.7-17 18.5-40.5 39.1-31.4 27.5-45.7 46.5-52.3 69.4-3.3 11.2-3.7 14.2-4.2 29-.7 18.1 2.2 27.6 10.6 36 14.6 14.4 41.4 14.3 54.4-.2 5-5.5 7.6-11.9 10.5-25.1 6.3-28.4 11.2-36.1 39-60.7 10.1-8.9 8.2-7.3 21.1-19 33-30.3 45.4-46.1 52.7-67.5 3.9-11.5 5.7-30 4.1-42-1.6-11.9-2.2-14.5-5.4-24-2.8-8.5-12-26.7-14.3-28.5-.4-.3-2-2.3-3.6-4.5-4.9-6.7-17.8-18.7-26.2-24.4C343.9 48.5 322 40 298.5 36.4c-2.2-.3-5.1-.8-6.5-1-3.3-.6-38.6-1.5-39.1-1zM247.5 392c-9.1 2.6-10.7 3.4-17.2 8.8-10.8 9-16.3 20.9-16.4 35.1 0 20.5 10 35.5 28.8 42.8 5.9 2.3 8.2 2.7 17.8 2.6 12 0 18-1.6 25.9-7 13.2-9.1 19.6-21.6 19.6-38.5 0-13.5-5-24.9-14.7-33.8-11.8-10.8-28.3-14.5-43.8-10z"/></svg>